# xmcd
#
# Track frame offsets:
# 150
# 18989
# 34159
# 68726
# 89989
# 102285
# 124733
# 158031
# 181306
# 202304
# 221266
# 249872
# 272875
#
# Disc length: 4064 seconds
#
#
# Revision: 0
# Processed by: cddbd v1.5.2PL0 Copyright (c) Steve Scherf et al.
# Submitted via: FreeRIP 2.52 
#
DISCID=b90fde0d
DTITLE=Buddy Guy - Buddy Guy Collected
DYEAR=2001
DGENRE=Blues
TTITLE0=Break Out All Over You (Poison Ivy)
TTITLE1=The Things I Used To Do (Live)
TTITLE2=Tell Me What's Inside of You (Live)
TTITLE3=You Can Make It If You Try
TTITLE4=Comin' On
TTITLE5=I Didn't Know My Mother Had a Son Like Me
TTITLE6=Breakin' Out On Top
TTITLE7=All Your Love
TTITLE8=Girl You're Nice and Clean
TTITLE9=Done Got Over You (Live)
TTITLE10=Have You Ever Been Lonesome?
TTITLE11=Love is Like Quicksand
TTITLE12=Blues at my Baby's House
EXTD=
EXTT0=
EXTT1=
EXTT2=
EXTT3=
EXTT4=
EXTT5=
EXTT6=
EXTT7=
EXTT8=
EXTT9=
EXTT10=
EXTT11=
EXTT12=
PLAYORDER=
